<?xml version="1.0" encoding="UTF-8"?>
<svg xmlns="http://www.w3.org/2000/svg" width="2412" height="292" viewBox="0 0 2412 292">
  <style>
    text { font-family: monospace; font-size: 10px; }
    .title { font-size: 16px; font-weight: bold; }
    .subtitle { font-size: 11px; }
    .legend-title { font-size: 12px; font-weight: bold; }
    .legend-name { font-size: 11px; font-weight: bold; }
    .legend-desc { font-size: 9px; }
    .legend-layer { font-size: 8px; font-style: italic; }
  </style>
  
  <!-- Background -->
  <rect width="2412" height="292" fill="#1a1a2e"/>
  
  <!-- Title -->
  <text x="10" y="22" fill="white" class="title">SCIE Stage 0 - Entity Map</text>
  <text x="10" y="38" fill="#aaa" class="subtitle">Level: 533 x 43 tiles | Scroll right to see full level →</text>
  
  <!-- Level area -->
  <rect x="10" y="50" width="2132" height="172" fill="#2d2d44" stroke="#666" stroke-width="2"/>
  <line x1="10" y1="50" x2="10" y2="222" stroke="#444" stroke-width="1"/>
  <text x="10" y="237" fill="#888" font-size="9" text-anchor="middle">x=0</text>
  <line x1="210" y1="50" x2="210" y2="222" stroke="#444" stroke-width="1"/>
  <text x="210" y="237" fill="#888" font-size="9" text-anchor="middle">x=50</text>
  <line x1="410" y1="50" x2="410" y2="222" stroke="#444" stroke-width="1"/>
  <text x="410" y="237" fill="#888" font-size="9" text-anchor="middle">x=100</text>
  <line x1="610" y1="50" x2="610" y2="222" stroke="#444" stroke-width="1"/>
  <text x="610" y="237" fill="#888" font-size="9" text-anchor="middle">x=150</text>
  <line x1="810" y1="50" x2="810" y2="222" stroke="#444" stroke-width="1"/>
  <text x="810" y="237" fill="#888" font-size="9" text-anchor="middle">x=200</text>
  <line x1="1010" y1="50" x2="1010" y2="222" stroke="#444" stroke-width="1"/>
  <text x="1010" y="237" fill="#888" font-size="9" text-anchor="middle">x=250</text>
  <line x1="1210" y1="50" x2="1210" y2="222" stroke="#444" stroke-width="1"/>
  <text x="1210" y="237" fill="#888" font-size="9" text-anchor="middle">x=300</text>
  <line x1="1410" y1="50" x2="1410" y2="222" stroke="#444" stroke-width="1"/>
  <text x="1410" y="237" fill="#888" font-size="9" text-anchor="middle">x=350</text>
  <line x1="1610" y1="50" x2="1610" y2="222" stroke="#444" stroke-width="1"/>
  <text x="1610" y="237" fill="#888" font-size="9" text-anchor="middle">x=400</text>
  <line x1="1810" y1="50" x2="1810" y2="222" stroke="#444" stroke-width="1"/>
  <text x="1810" y="237" fill="#888" font-size="9" text-anchor="middle">x=450</text>
  <line x1="2010" y1="50" x2="2010" y2="222" stroke="#444" stroke-width="1"/>
  <text x="2010" y="237" fill="#888" font-size="9" text-anchor="middle">x=500</text>
  <line x1="10" y1="50" x2="2142" y2="50" stroke="#444" stroke-width="1"/>
  <text x="5" y="54" fill="#888" font-size="8" text-anchor="end">y=0</text>
  <line x1="10" y1="90" x2="2142" y2="90" stroke="#444" stroke-width="1"/>
  <text x="5" y="94" fill="#888" font-size="8" text-anchor="end">y=10</text>
  <line x1="10" y1="130" x2="2142" y2="130" stroke="#444" stroke-width="1"/>
  <text x="5" y="134" fill="#888" font-size="8" text-anchor="end">y=20</text>
  <line x1="10" y1="170" x2="2142" y2="170" stroke="#444" stroke-width="1"/>
  <text x="5" y="174" fill="#888" font-size="8" text-anchor="end">y=30</text>
  <line x1="10" y1="210" x2="2142" y2="210" stroke="#444" stroke-width="1"/>
  <text x="5" y="214" fill="#888" font-size="8" text-anchor="end">y=40</text>
  <!-- Clayballs -->
  <circle cx="1818" cy="58" r="2" fill="#8B4513" opacity="0.5"/>
  <circle cx="1834" cy="58" r="2" fill="#8B4513" opacity="0.5"/>
  <circle cx="1850" cy="58" r="2" fill="#8B4513" opacity="0.5"/>
  <circle cx="1818" cy="62" r="2" fill="#8B4513" opacity="0.5"/>
  <circle cx="1834" cy="62" r="2" fill="#8B4513" opacity="0.5"/>
  <circle cx="1850" cy="62" r="2" fill="#8B4513" opacity="0.5"/>
  <circle cx="1818" cy="66" r="2" fill="#8B4513" opacity="0.5"/>
  <circle cx="1834" cy="66" r="2" fill="#8B4513" opacity="0.5"/>
  <circle cx="1850" cy="66" r="2" fill="#8B4513" opacity="0.5"/>
  <circle cx="1622" cy="70" r="2" fill="#8B4513" opacity="0.5"/>
  <circle cx="1638" cy="70" r="2" fill="#8B4513" opacity="0.5"/>
  <circle cx="1654" cy="70" r="2" fill="#8B4513" opacity="0.5"/>
  <circle cx="618" cy="74" r="2" fill="#8B4513" opacity="0.5"/>
  <circle cx="634" cy="74" r="2" fill="#8B4513" opacity="0.5"/>
  <circle cx="650" cy="74" r="2" fill="#8B4513" opacity="0.5"/>
  <circle cx="1622" cy="74" r="2" fill="#8B4513" opacity="0.5"/>
  <circle cx="1638" cy="74" r="2" fill="#8B4513" opacity="0.5"/>
  <circle cx="1654" cy="74" r="2" fill="#8B4513" opacity="0.5"/>
  <circle cx="1918" cy="74" r="2" fill="#8B4513" opacity="0.5"/>
  <circle cx="618" cy="78" r="2" fill="#8B4513" opacity="0.5"/>
  <circle cx="634" cy="78" r="2" fill="#8B4513" opacity="0.5"/>
  <circle cx="650" cy="78" r="2" fill="#8B4513" opacity="0.5"/>
  <circle cx="1622" cy="78" r="2" fill="#8B4513" opacity="0.5"/>
  <circle cx="1638" cy="78" r="2" fill="#8B4513" opacity="0.5"/>
  <circle cx="1654" cy="78" r="2" fill="#8B4513" opacity="0.5"/>
  <circle cx="618" cy="82" r="2" fill="#8B4513" opacity="0.5"/>
  <circle cx="634" cy="82" r="2" fill="#8B4513" opacity="0.5"/>
  <circle cx="650" cy="82" r="2" fill="#8B4513" opacity="0.5"/>
  <circle cx="1926" cy="82" r="2" fill="#8B4513" opacity="0.5"/>
  <circle cx="490" cy="86" r="2" fill="#8B4513" opacity="0.5"/>
  <circle cx="490" cy="90" r="2" fill="#8B4513" opacity="0.5"/>
  <circle cx="694" cy="90" r="2" fill="#8B4513" opacity="0.5"/>
  <circle cx="1918" cy="90" r="2" fill="#8B4513" opacity="0.5"/>
  <circle cx="490" cy="94" r="2" fill="#8B4513" opacity="0.5"/>
  <circle cx="702" cy="98" r="2" fill="#8B4513" opacity="0.5"/>
  <circle cx="1926" cy="98" r="2" fill="#8B4513" opacity="0.5"/>
  <circle cx="1294" cy="102" r="2" fill="#8B4513" opacity="0.5"/>
  <circle cx="1310" cy="102" r="2" fill="#8B4513" opacity="0.5"/>
  <circle cx="1326" cy="102" r="2" fill="#8B4513" opacity="0.5"/>
  <circle cx="1966" cy="102" r="2" fill="#8B4513" opacity="0.5"/>
  <circle cx="1982" cy="102" r="2" fill="#8B4513" opacity="0.5"/>
  <circle cx="694" cy="106" r="2" fill="#8B4513" opacity="0.5"/>
  <circle cx="1294" cy="106" r="2" fill="#8B4513" opacity="0.5"/>
  <circle cx="1310" cy="106" r="2" fill="#8B4513" opacity="0.5"/>
  <circle cx="1326" cy="106" r="2" fill="#8B4513" opacity="0.5"/>
  <circle cx="1918" cy="106" r="2" fill="#8B4513" opacity="0.5"/>
  <circle cx="1966" cy="106" r="2" fill="#8B4513" opacity="0.5"/>
  <circle cx="1982" cy="106" r="2" fill="#8B4513" opacity="0.5"/>
  <circle cx="1294" cy="110" r="2" fill="#8B4513" opacity="0.5"/>
  <circle cx="1310" cy="110" r="2" fill="#8B4513" opacity="0.5"/>
  <circle cx="1326" cy="110" r="2" fill="#8B4513" opacity="0.5"/>
  <circle cx="1966" cy="110" r="2" fill="#8B4513" opacity="0.5"/>
  <circle cx="1982" cy="110" r="2" fill="#8B4513" opacity="0.5"/>
  <circle cx="702" cy="114" r="2" fill="#8B4513" opacity="0.5"/>
  <circle cx="694" cy="122" r="2" fill="#8B4513" opacity="0.5"/>
  <circle cx="138" cy="126" r="2" fill="#8B4513" opacity="0.5"/>
  <circle cx="166" cy="126" r="2" fill="#8B4513" opacity="0.5"/>
  <circle cx="250" cy="126" r="2" fill="#8B4513" opacity="0.5"/>
  <circle cx="866" cy="126" r="2" fill="#8B4513" opacity="0.5"/>
  <circle cx="882" cy="126" r="2" fill="#8B4513" opacity="0.5"/>
  <circle cx="898" cy="126" r="2" fill="#8B4513" opacity="0.5"/>
  <circle cx="970" cy="126" r="2" fill="#8B4513" opacity="0.5"/>
  <circle cx="986" cy="126" r="2" fill="#8B4513" opacity="0.5"/>
  <circle cx="1002" cy="126" r="2" fill="#8B4513" opacity="0.5"/>
  <circle cx="1862" cy="126" r="2" fill="#8B4513" opacity="0.5"/>
  <circle cx="1878" cy="126" r="2" fill="#8B4513" opacity="0.5"/>
  <circle cx="138" cy="130" r="2" fill="#8B4513" opacity="0.5"/>
  <circle cx="166" cy="130" r="2" fill="#8B4513" opacity="0.5"/>
  <circle cx="250" cy="130" r="2" fill="#8B4513" opacity="0.5"/>
  <circle cx="702" cy="130" r="2" fill="#8B4513" opacity="0.5"/>
  <circle cx="866" cy="130" r="2" fill="#8B4513" opacity="0.5"/>
  <circle cx="882" cy="130" r="2" fill="#8B4513" opacity="0.5"/>
  <circle cx="898" cy="130" r="2" fill="#8B4513" opacity="0.5"/>
  <circle cx="970" cy="130" r="2" fill="#8B4513" opacity="0.5"/>
  <circle cx="986" cy="130" r="2" fill="#8B4513" opacity="0.5"/>
  <circle cx="1002" cy="130" r="2" fill="#8B4513" opacity="0.5"/>
  <circle cx="1862" cy="130" r="2" fill="#8B4513" opacity="0.5"/>
  <circle cx="1878" cy="130" r="2" fill="#8B4513" opacity="0.5"/>
  <circle cx="102" cy="134" r="2" fill="#8B4513" opacity="0.5"/>
  <circle cx="138" cy="134" r="2" fill="#8B4513" opacity="0.5"/>
  <circle cx="166" cy="134" r="2" fill="#8B4513" opacity="0.5"/>
  <circle cx="250" cy="134" r="2" fill="#8B4513" opacity="0.5"/>
  <circle cx="866" cy="134" r="2" fill="#8B4513" opacity="0.5"/>
  <circle cx="882" cy="134" r="2" fill="#8B4513" opacity="0.5"/>
  <circle cx="898" cy="134" r="2" fill="#8B4513" opacity="0.5"/>
  <circle cx="970" cy="134" r="2" fill="#8B4513" opacity="0.5"/>
  <circle cx="986" cy="134" r="2" fill="#8B4513" opacity="0.5"/>
  <circle cx="1002" cy="134" r="2" fill="#8B4513" opacity="0.5"/>
  <circle cx="1862" cy="134" r="2" fill="#8B4513" opacity="0.5"/>
  <circle cx="1878" cy="134" r="2" fill="#8B4513" opacity="0.5"/>
  <circle cx="694" cy="138" r="2" fill="#8B4513" opacity="0.5"/>
  <circle cx="702" cy="146" r="2" fill="#8B4513" opacity="0.5"/>
  <circle cx="694" cy="154" r="2" fill="#8B4513" opacity="0.5"/>
  <circle cx="1234" cy="162" r="2" fill="#8B4513" opacity="0.5"/>
  <circle cx="1250" cy="162" r="2" fill="#8B4513" opacity="0.5"/>
  <circle cx="1462" cy="162" r="2" fill="#8B4513" opacity="0.5"/>
  <circle cx="1482" cy="162" r="2" fill="#8B4513" opacity="0.5"/>
  <circle cx="1234" cy="166" r="2" fill="#8B4513" opacity="0.5"/>
  <circle cx="1250" cy="166" r="2" fill="#8B4513" opacity="0.5"/>
  <circle cx="1462" cy="166" r="2" fill="#8B4513" opacity="0.5"/>
  <circle cx="1482" cy="166" r="2" fill="#8B4513" opacity="0.5"/>
  <circle cx="1234" cy="170" r="2" fill="#8B4513" opacity="0.5"/>
  <circle cx="1250" cy="170" r="2" fill="#8B4513" opacity="0.5"/>
  <circle cx="1462" cy="170" r="2" fill="#8B4513" opacity="0.5"/>
  <circle cx="1482" cy="170" r="2" fill="#8B4513" opacity="0.5"/>
  <circle cx="586" cy="186" r="2" fill="#8B4513" opacity="0.5"/>
  <circle cx="602" cy="186" r="2" fill="#8B4513" opacity="0.5"/>
  <circle cx="618" cy="186" r="2" fill="#8B4513" opacity="0.5"/>
  <circle cx="1006" cy="186" r="2" fill="#8B4513" opacity="0.5"/>
  <circle cx="1022" cy="186" r="2" fill="#8B4513" opacity="0.5"/>
  <circle cx="1038" cy="186" r="2" fill="#8B4513" opacity="0.5"/>
  <circle cx="1166" cy="186" r="2" fill="#8B4513" opacity="0.5"/>
  <circle cx="1186" cy="186" r="2" fill="#8B4513" opacity="0.5"/>
  <circle cx="1342" cy="186" r="2" fill="#8B4513" opacity="0.5"/>
  <circle cx="1358" cy="186" r="2" fill="#8B4513" opacity="0.5"/>
  <circle cx="1374" cy="186" r="2" fill="#8B4513" opacity="0.5"/>
  <circle cx="1562" cy="186" r="2" fill="#8B4513" opacity="0.5"/>
  <circle cx="1578" cy="186" r="2" fill="#8B4513" opacity="0.5"/>
  <circle cx="586" cy="190" r="2" fill="#8B4513" opacity="0.5"/>
  <circle cx="602" cy="190" r="2" fill="#8B4513" opacity="0.5"/>
  <circle cx="618" cy="190" r="2" fill="#8B4513" opacity="0.5"/>
  <circle cx="1006" cy="190" r="2" fill="#8B4513" opacity="0.5"/>
  <circle cx="1022" cy="190" r="2" fill="#8B4513" opacity="0.5"/>
  <circle cx="1038" cy="190" r="2" fill="#8B4513" opacity="0.5"/>
  <circle cx="1166" cy="190" r="2" fill="#8B4513" opacity="0.5"/>
  <circle cx="1186" cy="190" r="2" fill="#8B4513" opacity="0.5"/>
  <circle cx="1342" cy="190" r="2" fill="#8B4513" opacity="0.5"/>
  <circle cx="1358" cy="190" r="2" fill="#8B4513" opacity="0.5"/>
  <circle cx="1374" cy="190" r="2" fill="#8B4513" opacity="0.5"/>
  <circle cx="1562" cy="190" r="2" fill="#8B4513" opacity="0.5"/>
  <circle cx="1578" cy="190" r="2" fill="#8B4513" opacity="0.5"/>
  <circle cx="586" cy="194" r="2" fill="#8B4513" opacity="0.5"/>
  <circle cx="602" cy="194" r="2" fill="#8B4513" opacity="0.5"/>
  <circle cx="618" cy="194" r="2" fill="#8B4513" opacity="0.5"/>
  <circle cx="1006" cy="194" r="2" fill="#8B4513" opacity="0.5"/>
  <circle cx="1022" cy="194" r="2" fill="#8B4513" opacity="0.5"/>
  <circle cx="1038" cy="194" r="2" fill="#8B4513" opacity="0.5"/>
  <circle cx="1166" cy="194" r="2" fill="#8B4513" opacity="0.5"/>
  <circle cx="1186" cy="194" r="2" fill="#8B4513" opacity="0.5"/>
  <circle cx="1342" cy="194" r="2" fill="#8B4513" opacity="0.5"/>
  <circle cx="1358" cy="194" r="2" fill="#8B4513" opacity="0.5"/>
  <circle cx="1374" cy="194" r="2" fill="#8B4513" opacity="0.5"/>
  <circle cx="1562" cy="194" r="2" fill="#8B4513" opacity="0.5"/>
  <circle cx="1578" cy="194" r="2" fill="#8B4513" opacity="0.5"/>
  <!-- Message -->
  <circle cx="394" cy="118" r="4" fill="#FFFF00" stroke="white" stroke-width="0.5"/>
  <circle cx="2114" cy="126" r="4" fill="#FFFF00" stroke="white" stroke-width="0.5"/>
  <circle cx="106" cy="134" r="4" fill="#FFFF00" stroke="white" stroke-width="0.5"/>
  <circle cx="230" cy="134" r="4" fill="#FFFF00" stroke="white" stroke-width="0.5"/>
  <circle cx="2034" cy="138" r="4" fill="#FFFF00" stroke="white" stroke-width="0.5"/>
  <circle cx="766" cy="182" r="4" fill="#FFFF00" stroke="white" stroke-width="0.5"/>
  <!-- Type 42 -->
  <circle cx="2138" cy="134" r="4" fill="#808080" stroke="white" stroke-width="0.5"/>
  <circle cx="2118" cy="126" r="4" fill="#808080" stroke="white" stroke-width="0.5"/>
  <!-- Ammo -->
  <circle cx="946" cy="94" r="4" fill="#FFD700" stroke="white" stroke-width="0.5"/>
  <circle cx="954" cy="94" r="4" fill="#FFD700" stroke="white" stroke-width="0.5"/>
  <circle cx="1498" cy="114" r="4" fill="#FFD700" stroke="white" stroke-width="0.5"/>
  <circle cx="390" cy="118" r="4" fill="#FFD700" stroke="white" stroke-width="0.5"/>
  <circle cx="1702" cy="186" r="4" fill="#FFD700" stroke="white" stroke-width="0.5"/>
  <!-- Type 10 -->
  <circle cx="1642" cy="98" r="4" fill="#00FFFF" stroke="white" stroke-width="0.5"/>
  <circle cx="1106" cy="142" r="4" fill="#00FFFF" stroke="white" stroke-width="0.5"/>
  <circle cx="762" cy="190" r="4" fill="#00FFFF" stroke="white" stroke-width="0.5"/>
  <circle cx="1598" cy="214" r="4" fill="#00FFFF" stroke="white" stroke-width="0.5"/>
  <!-- Special Ammo -->
  <circle cx="2030" cy="138" r="4" fill="#FF00FF" stroke="white" stroke-width="0.5"/>
  <!-- Item -->
  <circle cx="1582" cy="102" r="4" fill="#00FF00" stroke="white" stroke-width="0.5"/>
  <circle cx="1466" cy="122" r="4" fill="#00FF00" stroke="white" stroke-width="0.5"/>
  <circle cx="1410" cy="142" r="4" fill="#00FF00" stroke="white" stroke-width="0.5"/>
  <circle cx="1834" cy="158" r="4" fill="#00FF00" stroke="white" stroke-width="0.5"/>
  <circle cx="1886" cy="158" r="4" fill="#00FF00" stroke="white" stroke-width="0.5"/>
  <circle cx="1918" cy="158" r="4" fill="#00FF00" stroke="white" stroke-width="0.5"/>
  <circle cx="1082" cy="170" r="4" fill="#00FF00" stroke="white" stroke-width="0.5"/>
  <circle cx="1710" cy="178" r="4" fill="#00FF00" stroke="white" stroke-width="0.5"/>
  <circle cx="1662" cy="198" r="4" fill="#00FF00" stroke="white" stroke-width="0.5"/>
  <circle cx="874" cy="218" r="4" fill="#00FF00" stroke="white" stroke-width="0.5"/>
  <circle cx="910" cy="218" r="4" fill="#00FF00" stroke="white" stroke-width="0.5"/>
  <circle cx="1198" cy="218" r="4" fill="#00FF00" stroke="white" stroke-width="0.5"/>
  <circle cx="1218" cy="218" r="4" fill="#00FF00" stroke="white" stroke-width="0.5"/>
  <circle cx="1298" cy="218" r="4" fill="#00FF00" stroke="white" stroke-width="0.5"/>
  <circle cx="1318" cy="218" r="4" fill="#00FF00" stroke="white" stroke-width="0.5"/>
  <circle cx="1526" cy="218" r="4" fill="#00FF00" stroke="white" stroke-width="0.5"/>
  <circle cx="1546" cy="218" r="4" fill="#00FF00" stroke="white" stroke-width="0.5"/>
  <circle cx="226" cy="134" r="4" fill="#00FF00" stroke="white" stroke-width="0.5"/>
  <circle cx="1710" cy="186" r="4" fill="#00FF00" stroke="white" stroke-width="0.5"/>
  <!-- platform_a -->
  <polygon points="1690,96 1696,84 1684,84" fill="#0000FF" stroke="white" stroke-width="1"/>
  <polygon points="1766,84 1772,96 1760,96" fill="#0000FF" stroke="white" stroke-width="1"/>
  <polygon points="1794,96 1800,84 1788,84" fill="#0000FF" stroke="white" stroke-width="1"/>
  <polygon points="1870,84 1876,96 1864,96" fill="#0000FF" stroke="white" stroke-width="1"/>
  <polygon points="594,112 600,100 588,100" fill="#0000FF" stroke="white" stroke-width="1"/>
  <polygon points="670,100 676,112 664,112" fill="#0000FF" stroke="white" stroke-width="1"/>
  <polygon points="1166,140 1172,128 1160,128" fill="#0000FF" stroke="white" stroke-width="1"/>
  <polygon points="1242,128 1248,140 1236,140" fill="#0000FF" stroke="white" stroke-width="1"/>
  <polygon points="1270,140 1276,128 1264,128" fill="#0000FF" stroke="white" stroke-width="1"/>
  <polygon points="1346,128 1352,140 1340,140" fill="#0000FF" stroke="white" stroke-width="1"/>
  <polygon points="946,164 952,152 940,152" fill="#0000FF" stroke="white" stroke-width="1"/>
  <polygon points="1022,152 1028,164 1016,164" fill="#0000FF" stroke="white" stroke-width="1"/>
  <!-- platform_b -->
  <polygon points="842,164 848,152 836,152" fill="#00008B" stroke="white" stroke-width="1"/>
  <polygon points="918,152 924,164 912,164" fill="#00008B" stroke="white" stroke-width="1"/>
  <!-- enemy_a -->
  <rect x="1522" y="98" width="8" height="8" fill="#FF0000" stroke="white" stroke-width="1"/><text x="1526" y="105" fill="white" font-size="6" text-anchor="middle">0</text>
  <rect x="562" y="102" width="8" height="8" fill="#FF0000" stroke="white" stroke-width="1"/><text x="566" y="109" fill="white" font-size="6" text-anchor="middle">3</text>
  <rect x="358" y="150" width="8" height="8" fill="#FF0000" stroke="white" stroke-width="1"/><text x="362" y="157" fill="white" font-size="6" text-anchor="middle">7</text>
  <rect x="1794" y="154" width="8" height="8" fill="#FF0000" stroke="white" stroke-width="1"/><text x="1798" y="161" fill="white" font-size="6" text-anchor="middle">8</text>
  <rect x="1878" y="154" width="8" height="8" fill="#FF0000" stroke="white" stroke-width="1"/><text x="1882" y="161" fill="white" font-size="6" text-anchor="middle">11</text>
  <rect x="1990" y="154" width="8" height="8" fill="#FF0000" stroke="white" stroke-width="1"/><text x="1994" y="161" fill="white" font-size="6" text-anchor="middle">16</text>
  <rect x="934" y="190" width="8" height="8" fill="#FF0000" stroke="white" stroke-width="1"/><text x="938" y="197" fill="white" font-size="6" text-anchor="middle">20</text>
  <rect x="994" y="214" width="8" height="8" fill="#FF0000" stroke="white" stroke-width="1"/><text x="998" y="221" fill="white" font-size="6" text-anchor="middle">26</text>
  <!-- enemy_b -->
  <rect x="1558" y="98" width="8" height="8" fill="#FF6600" stroke="white" stroke-width="1"/><text x="1562" y="105" fill="white" font-size="6" text-anchor="middle">1</text>
  <rect x="338" y="150" width="8" height="8" fill="#FF6600" stroke="white" stroke-width="1"/><text x="342" y="157" fill="white" font-size="6" text-anchor="middle">6</text>
  <rect x="1810" y="154" width="8" height="8" fill="#FF6600" stroke="white" stroke-width="1"/><text x="1814" y="161" fill="white" font-size="6" text-anchor="middle">9</text>
  <rect x="1894" y="154" width="8" height="8" fill="#FF6600" stroke="white" stroke-width="1"/><text x="1898" y="161" fill="white" font-size="6" text-anchor="middle">13</text>
  <rect x="1970" y="154" width="8" height="8" fill="#FF6600" stroke="white" stroke-width="1"/><text x="1974" y="161" fill="white" font-size="6" text-anchor="middle">15</text>
  <rect x="2006" y="154" width="8" height="8" fill="#FF6600" stroke="white" stroke-width="1"/><text x="2010" y="161" fill="white" font-size="6" text-anchor="middle">17</text>
  <rect x="654" y="214" width="8" height="8" fill="#FF6600" stroke="white" stroke-width="1"/><text x="658" y="221" fill="white" font-size="6" text-anchor="middle">22</text>
  <rect x="974" y="214" width="8" height="8" fill="#FF6600" stroke="white" stroke-width="1"/><text x="978" y="221" fill="white" font-size="6" text-anchor="middle">25</text>

  <!-- Legend Box -->
  <rect x="2152" y="40" width="250" height="408" fill="#252540" stroke="#555" stroke-width="1" rx="5"/>
  <text x="2162" y="60" fill="white" class="legend-title">LEGEND</text>
  <line x1="2157" y1="68" x2="2392" y2="68" stroke="#555" stroke-width="1"/>
  <rect x="2166" y="79" width="12" height="12" fill="#FF0000" stroke="white" stroke-width="1"/>
  <text x="2172" y="88" fill="white" font-size="6" text-anchor="middle">#</text>
  <text x="2192" y="83" fill="#FF0000" class="legend-name">BLB 25: enemy_a</text>
  <text x="2192" y="94" fill="#ccc" class="legend-desc">UNKNOWN - 8 entities</text>
  <text x="2342" y="94" fill="#888" class="legend-layer">Layer 1</text>
  <rect x="2166" y="107" width="12" height="12" fill="#FF6600" stroke="white" stroke-width="1"/>
  <text x="2172" y="116" fill="white" font-size="6" text-anchor="middle">#</text>
  <text x="2192" y="111" fill="#FF6600" class="legend-name">BLB 27: enemy_b</text>
  <text x="2192" y="122" fill="#ccc" class="legend-desc">UNKNOWN - 8 entities</text>
  <text x="2342" y="122" fill="#888" class="legend-layer">Layer 1</text>
  <polygon points="2164,141 2170,135 2170,147" fill="#0000FF" stroke="white" stroke-width="1"/>
  <polygon points="2180,141 2174,135 2174,147" fill="#0000FF" stroke="white" stroke-width="1"/>
  <text x="2192" y="139" fill="#0000FF" class="legend-name">BLB 28: platform_a</text>
  <text x="2192" y="150" fill="#ccc" class="legend-desc">Moving platform? (12)</text>
  <text x="2342" y="150" fill="#888" class="legend-layer">Layer 3</text>
  <polygon points="2164,169 2170,163 2170,175" fill="#00008B" stroke="white" stroke-width="1"/>
  <polygon points="2180,169 2174,163 2174,175" fill="#00008B" stroke="white" stroke-width="1"/>
  <text x="2192" y="167" fill="#00008B" class="legend-name">BLB 48: platform_b</text>
  <text x="2192" y="178" fill="#ccc" class="legend-desc">Moving platform? (2)</text>
  <text x="2342" y="178" fill="#888" class="legend-layer">Layer 3</text>
  <circle cx="2172" cy="197" r="6" fill="#00FF00" stroke="white" stroke-width="0.5"/>
  <text x="2192" y="195" fill="#00FF00" class="legend-name">BLB 8: Item</text>
  <text x="2192" y="206" fill="#ccc" class="legend-desc">1-up/health items (19)</text>
  <text x="2342" y="206" fill="#888" class="legend-layer">Layer 1</text>
  <circle cx="2172" cy="225" r="6" fill="#FFD700" stroke="white" stroke-width="0.5"/>
  <text x="2192" y="223" fill="#FFD700" class="legend-name">BLB 3: Ammo</text>
  <text x="2192" y="234" fill="#ccc" class="legend-desc">Ammo pickups (5)</text>
  <text x="2342" y="234" fill="#888" class="legend-layer">Layer 2</text>
  <circle cx="2172" cy="253" r="6" fill="#00FFFF" stroke="white" stroke-width="0.5"/>
  <text x="2192" y="251" fill="#00FFFF" class="legend-name">BLB 10: Type 10</text>
  <text x="2192" y="262" fill="#ccc" class="legend-desc">Unknown collectible (4)</text>
  <text x="2342" y="262" fill="#888" class="legend-layer">Layer 2</text>
  <circle cx="2172" cy="281" r="6" fill="#FF00FF" stroke="white" stroke-width="0.5"/>
  <text x="2192" y="279" fill="#FF00FF" class="legend-name">BLB 24: Special Ammo</text>
  <text x="2192" y="290" fill="#ccc" class="legend-desc">Special weapon (1)</text>
  <text x="2342" y="290" fill="#888" class="legend-layer">Layer 2</text>
  <circle cx="2172" cy="309" r="6" fill="#FFFF00" stroke="white" stroke-width="0.5"/>
  <text x="2192" y="307" fill="#FFFF00" class="legend-name">BLB 45: Message</text>
  <text x="2192" y="318" fill="#ccc" class="legend-desc">Sign/tutorial (6)</text>
  <text x="2342" y="318" fill="#888" class="legend-layer">Layer 2</text>
  <circle cx="2172" cy="337" r="6" fill="#808080" stroke="white" stroke-width="0.5"/>
  <text x="2192" y="335" fill="#808080" class="legend-name">BLB 42: Type 42</text>
  <text x="2192" y="346" fill="#ccc" class="legend-desc">Unknown (2)</text>
  <text x="2342" y="346" fill="#888" class="legend-layer">Layer 2</text>
  <circle cx="2172" cy="365" r="4" fill="#8B4513" opacity="0.7"/>
  <text x="2192" y="363" fill="#8B4513" class="legend-name">BLB 2: Clayball</text>
  <text x="2192" y="374" fill="#ccc" class="legend-desc">Clay collectibles (144)</text>
  <text x="2342" y="374" fill="#888" class="legend-layer">Layer 2</text>

  <!-- Questions Box -->
  <rect x="2152" y="408" width="250" height="85" fill="#3a2020" stroke="#833" stroke-width="1" rx="5"/>
  <text x="2162" y="426" fill="#f88" font-size="11" font-weight="bold">❓ QUESTIONS FOR YOU:</text>
  <text x="2162" y="442" fill="#faa" font-size="9">1. What are RED squares (enemy_a)?</text>
  <text x="2162" y="456" fill="#faa" font-size="9">2. What are ORANGE squares (enemy_b)?</text>
  <text x="2162" y="470" fill="#faa" font-size="9">3. They appear paired - patrol bounds?</text>
  <text x="2162" y="484" fill="#faa" font-size="9">4. Where are Loud Mouth enemies?</text>
</svg>